# xmcd
#
# Track frame offsets:
#	150
#	9312
#	22670
#	30987
#	49517
#	60282
#	75150
#	87510
#	96270
#	109820
#
# Disc length: 1610 seconds
#
# Revision: 0
# Processed by: cddbd v1.4PL0 Copyright (c) Steve Scherf et al.
# Submitted via: dBpowerAMP V4.0
#
DISCID=5b06480a
DTITLE=Chosen Few - Christmas Time Here In Our Town
DYEAR=1999
DGENRE=Country
TTITLE0=Sleigh Ride
TTITLE1=O Holy Night
TTITLE2=Christmas Country Style
TTITLE3=Medley
TTITLE4=Winter Wonderland
TTITLE5=Christmas Time Here In Our Town
TTITLE6=Do You Hear What I Hear?
TTITLE7=No Reservation At The Inn
TTITLE8=Medley
TTITLE9=You're A Mean One Mr. Grinch
EXTD=
EXTT0=
EXTT1=
EXTT2=
EXTT3=
EXTT4=
EXTT5=
EXTT6=
EXTT7=
EXTT8=
EXTT9=
PLAYORDER=
